<svg version="1.1" viewBox="0 0 96 96" xmlns="http://www.w3.org/2000/svg" xmlns:xlink="http://www.w3.org/1999/xlink" id="Icons_ConfettiBall" overflow="hidden"><style>
.MsftOfcThm_Accent1_Fill {
 fill:#00194C; 
}
</style>
<path d=" M 36.25 57.52 C 32.88 55.7 27.9 54.68 23.72 54.11 C 26.42 51.3 29.54 48.77 32.05 48.72 C 29.8189 46.8562 27.1411 45.6052 24.28 45.09 C 19.71 46.86 16 53.38 16 53.38 C 15.7419 56.2302 16.2784 59.0962 17.55 61.66 C 18.7398 61.4068 19.9535 61.2828 21.17 61.29 C 23.287 61.3141 25.393 61.5996 27.44 62.14 C 22 65 20.14 72.53 20.14 72.53 L 26.87 74.6 C 26.87 74.6 29.4 67.81 35.67 65.28 C 35.67 65.28 38 60.3 36.25 57.52 Z M 21.17 59.22 C 20.52 59.22 19.9 59.22 19.28 59.31 C 20 58.35 21 57.18 22 56 C 25.9175 56.3772 29.7734 57.237 33.48 58.56 C 32.1355 59.1455 30.8382 59.8343 29.6 60.62 C 26.8723 59.7487 24.0329 59.2772 21.17 59.22 Z" class="MsftOfcThm_Accent1_Fill" stroke="none" stroke-width="1" stroke-dasharray="" stroke-dashoffset="1" fill="#00194C" fill-opacity="1"/><path d=" M 47.89 60.72 L 43 62.56 L 41.16 67.45 L 46.05 65.61 L 47.89 60.72 Z" class="MsftOfcThm_Accent1_Fill" stroke="none" stroke-width="1" stroke-dasharray="" stroke-dashoffset="1" fill="#00194C" fill-opacity="1"/><path d=" M 75.82 67.16 L 74.89 72.3 L 78.13 76.39 L 79.06 71.25 L 75.82 67.16 Z" class="MsftOfcThm_Accent1_Fill" stroke="none" stroke-width="1" stroke-dasharray="" stroke-dashoffset="1" fill="#00194C" fill-opacity="1"/><path d=" M 35.41 46.09 L 37.25 50.98 L 42.14 52.82 L 40.3 47.93 L 35.41 46.09 Z" class="MsftOfcThm_Accent1_Fill" stroke="none" stroke-width="1" stroke-dasharray="" stroke-dashoffset="1" fill="#00194C" fill-opacity="1"/><path d=" M 35.13 73.71 L 32.63 78.29 L 34.42 83.2 L 36.92 78.61 L 35.13 73.71 Z" class="MsftOfcThm_Accent1_Fill" stroke="none" stroke-width="1" stroke-dasharray="" stroke-dashoffset="1" fill="#00194C" fill-opacity="1"/><path d=" M 53.29 24.3 C 48.5348 12.818 35.372 7.36483 23.89 12.12 C 12.408 16.8752 6.95483 30.038 11.71 41.52 C 13.23 45.18 18.22 43.84 21.52 42.95 C 26.0134 41.6689 30.4249 40.1161 34.73 38.3 C 39.0578 36.558 43.2756 34.5543 47.36 32.3 C 50.32 30.54 54.8 28 53.29 24.3 Z M 33.46 35.22 C 23.68 39.27 15.32 41.52 14.79 40.22 C 14.26 38.92 21.79 34.63 31.54 30.58 C 41.29 26.53 49.68 24.28 50.21 25.58 C 50.74 26.88 43.23 31.17 33.46 35.22 Z" class="MsftOfcThm_Accent1_Fill" stroke="none" stroke-width="1" stroke-dasharray="" stroke-dashoffset="1" fill="#00194C" fill-opacity="1"/><path d=" M 71.2 30.12 C 59.7208 25.382 46.5726 30.831 41.81 42.3 C 40.29 45.96 44.81 48.54 47.73 50.3 C 51.8154 52.5523 56.0331 54.556 60.36 56.3 C 64.664 58.133 69.0755 59.7026 73.57 61 C 76.87 61.89 81.86 63.23 83.38 59.57 C 88.1505 48.0778 82.7015 34.8943 71.2093 30.1239 C 71.2062 30.1226 71.2031 30.1213 71.2 30.12 Z M 80.3 58.24 C 79.77 59.52 71.41 57.24 61.64 53.24 C 51.87 49.24 44.36 44.87 44.88 43.59 C 45.4 42.31 53.77 44.59 63.55 48.59 C 73.33 52.59 80.83 57 80.3 58.24 Z" class="MsftOfcThm_Accent1_Fill" stroke="none" stroke-width="1" stroke-dasharray="" stroke-dashoffset="1" fill="#00194C" fill-opacity="1"/><path d=" M 68.56 62.57 C 68.8163 63.521 68.9209 64.5064 68.87 65.49 L 67.87 65.43 C 67.2772 64.1038 66.5747 62.8294 65.77 61.62 C 64.33 61.1133 62.85 60.5567 61.33 59.95 C 62.9956 61.7263 64.3753 63.7504 65.42 65.95 C 61.8991 65.4086 58.418 64.6336 55 63.63 C 55 63.63 52.41 64.4 51.65 69.84 C 51.57 70.52 51.53 70.97 51.53 70.97 C 54.5006 72.9778 57.3306 75.1862 60 77.58 C 55.1314 78.8558 49.9752 78.4578 45.36 76.45 C 46.57 80.16 46.81 83.45 46.36 85.28 C 58.7 88.07 63.9 81.86 63.9 81.86 C 63.9 81.86 67.97 76.37 67.36 74.56 C 66.03 73.79 64.82 73.02 63.74 72.26 C 65.1194 72.6461 66.4779 73.1034 67.81 73.63 C 69.62 72.94 71.28 66.33 71.28 66.33 C 71.3937 65.3512 71.3668 64.3612 71.2 63.39 C 70.36 63.14 69.48 62.87 68.56 62.57 Z M 64 75.31 C 63.34 75.59 62.69 75.85 62 76.08 C 60.3198 74.5272 58.5608 73.062 56.73 71.69 C 57.53 71.77 58.43 71.89 59.42 72.06 C 60.8787 73.2361 62.4082 74.3215 64 75.31 Z" class="MsftOfcThm_Accent1_Fill" stroke="none" stroke-width="1" stroke-dasharray="" stroke-dashoffset="1" fill="#00194C" fill-opacity="1"/></svg>